# AST/ASF file generated using VICON BodyLanguage
# -----------------------------------------------
:version 1.10
:name VICON
:units
  mass 1.0
  length 0.45
  angle deg
:documentation
   .ast/.asf automatically generated from VICON data using
   VICON BodyBuilder and BodyLanguage model FoxedUp or BRILLIANT.MOD
:root
   order TX TY TZ RX RY RZ
   axis XYZ
   position 0 0 0  
   orientation 0 0 0 
:bonedata
  begin
     id 1 
     name lhipjoint
     direction 0.521452 -0.77106 0.36545 
     length 2.0933 
     axis 0 0 0  XYZ
  end
  begin
     id 2 
     name lfemur
     direction 0.34202 -0.939693 0  
     length 6.83441  
     axis 0 0 20  XYZ
    dof rx ry rz
    limits (-160.0 20.0)
           (-70.0 70.0)
           (-60.0 70.0)
  end
  begin
     id 3 
     name ltibia
     direction 0.34202 -0.939693 0   
     length 7.28749   
     axis 0 0 20   XYZ
    dof rx
    limits (-10.0 170.0)
  end
  begin
     id 4 
     name lfoot
     direction 0.100608 -0.276418 0.955757   
     length 1.52195   
     axis -90 7.62852e-016 20   XYZ
    dof rx rz
    limits (-45.0 90.0)
           (-70.0 20.0)
  end
  begin
     id 5 
     name ltoes
     direction 1.53558e-011 -4.21907e-011 1   
     length 0.770459   
     axis -90 7.62852e-016 20   XYZ
    dof rx
    limits (-90.0 20.0)
  end
  begin
     id 6 
     name rhipjoint
     direction -0.488071 -0.788702 0.373812   
     length 2.04648  
     axis 0 0 0  XYZ 
  end
  begin
     id 7 
     name rfemur
     direction -0.34202 -0.939693 0   
     length 6.92583   
     axis 0 0 -20   XYZ
    dof rx ry rz
    limits (-160.0 20.0)
           (-70.0 70.0)
           (-70.0 60.0)
  end
  begin
     id 8 
     name rtibia
     direction -0.34202 -0.939693 0   
     length 7.41043   
     axis 0 0 -20   XYZ
    dof rx
    limits (-10.0 170.0)
 end
 begin
     id 9 
     name rfoot
     direction -0.0784433 -0.215521 0.973343   
     length 1.67708  
     axis -90 -7.62852e-016 -20   XYZ
    dof rx rz
    limits (-45.0 90.0)
           (-20.0 70.0)
  end
  begin
     id 10 
     name rtoes
     direction -1.53551e-011 -4.21842e-011 1   
     length 0.849787   
     axis -90 -7.62852e-016 -20   XYZ
    dof rx
    limits (-90.0 20.0)
  end
  begin
     id 11 
     name lowerback
     direction -0.0122332 0.997575 -0.0685192   
     length 1.98724   
     axis 0 0 0   XYZ
    dof rx ry rz
    limits (-20.0 45.0)
           (-30.0 30.0)
           (-30.0 30.0)
  end
  begin
     id 12 
     name upperback
     direction 0.0182347 0.999724 -0.0148421   
     length 1.99029   
     axis 0 0 0   XYZ
    dof rx ry rz
    limits (-20.0 45.0)
           (-30.0 30.0)
           (-30.0 30.0)
  end
  begin
     id 13 
     name thorax
     direction 0.0242908 0.99956 0.0170184   
     length 1.99573   
     axis 0 0 0   XYZ
    dof rx ry rz
    limits (-20.0 45.0)
           (-30.0 30.0)
           (-30.0 30.0)
  end
  begin
     id 14 
     name lowerneck
     direction 0.0654488 0.985533 0.156338   
     length 1.4285   
     axis 0 0 0   XYZ
    dof rx ry rz
    limits (-20.0 45.0)
           (-30.0 30.0)
           (-30.0 30.0)
  end
  begin
     id 15 
     name upperneck
     direction -0.02953 0.998556 -0.0448842   
     length 1.44709   
     axis 0 0 0   XYZ
    dof rx ry rz
    limits (-20.0 45.0)
           (-30.0 30.0)
           (-30.0 30.0)
  end
  begin
     id 16
     name head
     direction -0.0155588 0.999386 -0.0314063  
     length 1.44689  
     axis 0 0 0   XYZ
    dof rx ry rz
    limits (-20.0 45.0)
           (-30.0 30.0)
           (-30.0 30.0)
  end
  begin
     id 17 
     name lclavicle
     direction 0.968229 0.236071 -0.0824755  
     length 3.60593  
     axis 0 0 0   XYZ
    dof ry rz
    limits (-20.0 10.0)
           (0.0 20.0)
  end
  begin
     id 18 
     name lhumerus
     direction 1 -4.48968e-011 7.8138e-029   
     length 5.06035   
     axis 180 -30 -90   XYZ
    dof rx ry rz
    limits (-60.0 90.0)
           (-90.0 90.0)
           (-90.0 90.0)
  end
  begin
     id 19
     name lradius
     direction 1 -4.48967e-011 9.02887e-028   
     length 3.1478   
     axis 180 -30 -90   XYZ
    dof rx
    limits (-10.0 170.0)
  end
  begin
     id 20
     name lwrist
     direction 1 -4.48961e-011 7.20928e-028   
     length 1.5739   
     axis -5.52449e-016 90 90   XYZ
    dof ry
    limits (-180.0 0.0)
 end
  begin
     id 21 
     name lhand
     direction 1 -4.48972e-011 1.44186e-027   
     length 0.606747   
     axis -9.20027e-016 90 90   XYZ
    dof rx rz
    limits (-90.0 90.0)
           (-45.0 45.0)
  end
  begin
     id 22 
     name lfingers
     direction 1 -4.48943e-011 2.88371e-027   
     length 0.489175   
     axis -1.84005e-015 90 90   XYZ
    dof rx
    limits (0.0 90.0)
  end
  begin
     id 23
     name lthumb
     direction 0.707107 -6.34917e-011 0.707107   
     length 0.70236   
     axis -90 45 2.85299e-015   XYZ
    dof rx rz
    limits (-45.0 45.0)
           (-45.0 45.0)
  end
  begin
     id 24 
     name rclavicle
     direction -0.978165 0.207816 0.0022268   
     length 3.35425  
     axis 0 0 0   XYZ 
    dof ry rz
    limits (-10.0 20.0)
           (-20.0 0.0)
  end
  begin
     id 25 
     name rhumerus
     direction -1 -4.48964e-011 -4.02159e-027  
     length 5.12273   
     axis 180 30 90   XYZ
    dof rx ry rz
    limits (-90.0 60.0)
           (-90.0 90.0)
           (-90.0 90.0)
  end
  begin
     id 26 
     name rradius
     direction -1 -4.48966e-011 1.62746e-027   
     length 3.422   
     axis 180 30 90   XYZ
    dof rx
    limits (-10.0 170.0)
  end
  begin
     id 27 
     name rwrist
     direction -1 -4.4896e-011 7.20928e-028   
     length 1.711   
     axis -5.52449e-016 -90 -90   XYZ
    dof ry
    limits (-180.0 0.0)
  end
  begin
     id 28
     name rhand
     direction -1 -4.48979e-011 1.44186e-027   
     length 0.704599   
     axis -9.20027e-016 -90 -90   XYZ
    dof rx rz
    limits (-90.0 90.0)
           (-45.0 45.0)
  end
  begin
     id 29
     name rfingers
     direction -1 -4.48962e-011 2.88371e-027   
     length 0.568066   
     axis -1.84005e-015 -90 -90   XYZ
    dof rx
    limits (0.0 90.0)
  end
  begin
     id 30
     name rthumb
     direction -0.707107 -6.34949e-011 0.707107   
     length 0.815633   
     axis -90 -45 -2.85299e-015   XYZ
    dof rx rz
    limits (-45.0 45.0)
           (-45.0 45.0)
  end
:hierarchy
  begin
    root lhipjoint rhipjoint lowerback
    lhipjoint lfemur
    lfemur ltibia
    ltibia lfoot
    lfoot ltoes
    rhipjoint rfemur
    rfemur rtibia
    rtibia rfoot
    rfoot rtoes
    lowerback upperback
    upperback thorax
    thorax lowerneck lclavicle rclavicle
    lowerneck upperneck
    upperneck head
    lclavicle lhumerus
    lhumerus lradius
    lradius lwrist
    lwrist lhand lthumb
    lhand lfingers
    rclavicle rhumerus
    rhumerus rradius
    rradius rwrist
    rwrist rhand rthumb
    rhand rfingers
  end

#!OML:ASF E:\id_vita\Project 1\Capture day 1\Session 1\Male1.ASF
:FULLY-SPECIFIED
:DEGREES
984
root 19.2629 2.76841 4.57774 173.429 88.837 202.974
lowerback 41.0099 -0.93976 -2.49307
upperback 18.3974 0.933229 -1.14522
thorax 0.855254 1.66707 -0.221063
lowerneck -2.36459 13.7185 15.5812
upperneck -7.51503 17.903 -11.3201
head 0.523295 8.91647 -5.22386
rclavicle -1.21259e-014 -1.51076e-014
rhumerus 55.3512 -8.07572 -49.7453
rradius 128.785
rwrist -19.7712
rhand -39.0345 -283.833
rfingers 7.12502
rthumb -12.0369 46.5332
lclavicle -1.21259e-014 -1.51076e-014
lhumerus 73.0323 -30.757 -7.69975
lradius 47.9319
lwrist 30.843
lhand 7.11915 46.3906
lfingers 7.12502
lthumb 32.3891 73.5177
rfemur -103.061 -14.4187 42.0126
rtibia 94.1682
rfoot 3.71561 16.9979
rtoes -18.8635
lfemur -98.5548 17.898 -35.187
ltibia 77.95
lfoot 30.4196 6.96074
ltoes 40.0183
985
root 19.2631 2.76898 4.57799 166.313 88.8058 195.807
lowerback 40.9637 -0.911551 -2.63338
upperback 18.3993 0.916788 -1.16705
thorax 0.873027 1.64945 -0.166035
lowerneck -2.42443 13.6906 15.7459
upperneck -7.42365 17.852 -11.4286
head 0.578677 8.88753 -5.27118
rclavicle 3.57812e-015 9.93923e-015
rhumerus 55.3468 -8.21663 -49.6601
rradius 128.843
rwrist -19.4506
rhand -39.3554 -283.765
rfingers 7.12502
rthumb -12.3464 46.6191
lclavicle 3.57812e-015 9.93923e-015
lhumerus 72.9895 -30.7433 -7.68471
lradius 47.9451
lwrist 30.8514
lhand 7.04653 46.3772
lfingers 7.12502
lthumb 32.32 73.5184
rfemur -103.146 -14.4318 41.881
rtibia 94.1968
rfoot 3.65775 17.0361
rtoes -18.5541
lfemur -98.5659 17.8588 -35.3532
ltibia 77.9188
lfoot 30.4123 6.96582
ltoes 40.0081
986
root 19.2631 2.76961 4.57814 157.838 88.7415 187.269
lowerback 40.9156 -0.870095 -2.80504
upperback 18.389 0.903218 -1.19264
thorax 0.878254 1.63062 -0.10025
lowerneck -2.44821 13.6533 15.923
upperneck -7.34666 17.7927 -11.5492
head 0.625441 8.85488 -5.32787
rclavicle -1.78906e-015 7.95139e-015
rhumerus 55.3548 -8.34887 -49.5972
rradius 128.949
rwrist -19.2453
rhand -39.4807 -283.805
rfingers 7.12502
rthumb -12.4672 46.5868
lclavicle -1.78906e-015 7.95139e-015
lhumerus 72.9653 -30.745 -7.66567
lradius 47.9578
lwrist 30.851
lhand 6.92086 46.3542
lfingers 7.12502
lthumb 32.2004 73.5197
rfemur -103.255 -14.4455 41.7182
rtibia 94.2189
rfoot 3.62876 17.0861
rtoes -18.471
lfemur -98.5768 17.8048 -35.5577
ltibia 77.8825
lfoot 30.3893 6.99043
ltoes 40.0366
987
root 19.2629 2.77019 4.57822 150.311 88.6517 179.679
lowerback 40.8746 -0.825208 -2.97374
upperback 18.3749 0.894863 -1.21357
thorax 0.877274 1.61437 -0.0330316
lowerneck -2.41653 13.6265 16.0327
upperneck -7.32701 17.7571 -11.6275
head 0.639384 8.83615 -5.36876
rclavicle -1.19271e-014 -2.5842e-014
rhumerus 55.3818 -8.44853 -49.5519
rradius 129.055
rwrist -19.1141
rhand -39.4031 -283.851
rfingers 7.12502
rthumb -12.3923 46.5363
lclavicle -1.19271e-014 -2.5842e-014
lhumerus 72.9541 -30.7519 -7.63262
lradius 47.9666
lwrist 30.8456
lhand 6.81441 46.3455
lfingers 7.12502
lthumb 32.099 73.5315
rfemur -103.368 -14.4574 41.5639
rtibia 94.2288
rfoot 3.64609 17.1289
rtoes -18.7922
lfemur -98.5845 17.7455 -35.7531
ltibia 77.8496
lfoot 30.355 7.03572
ltoes 40.1398
988
root 19.2626 2.77055 4.57829 145.209 88.5669 174.533
lowerback 40.8496 -0.788747 -3.10466
upperback 18.3692 0.892256 -1.22514
thorax 0.880495 1.60403 0.0228368
lowerneck -2.35117 13.6178 16.0521
upperneck -7.36843 17.7534 -11.6462
head 0.620147 8.83545 -5.38365
rclavicle 9.54166e-015 -1.19271e-015
rhumerus 55.4246 -8.51482 -49.5124
rradius 129.129
rwrist -18.9632
rhand -39.2501 -283.786
rfingers 7.12502
rthumb -12.2448 46.5925
lclavicle 9.54166e-015 -1.19271e-015
lhumerus 72.9512 -30.7477 -7.59795
lradius 47.9733
lwrist 30.8481
lhand 6.77076 46.3697
lfingers 7.12502
lthumb 32.0575 73.5641
rfemur -103.452 -14.4692 41.4503
rtibia 94.2285
rfoot 3.67583 17.1605
rtoes -19.2473
lfemur -98.5833 17.6962 -35.8944
ltibia 77.8245
lfoot 30.3238 7.09202
ltoes 40.3127
989
root 19.2621 2.7707 4.5785 142.578 88.5133 171.885
lowerback 40.8459 -0.767019 -3.17974
upperback 18.3755 0.89463 -1.22899
thorax 0.89009 1.6009 0.05664
lowerneck -2.30601 13.6106 16.0522
upperneck -7.41874 17.7497 -11.6477
head 0.597932 8.83468 -5.39018
rclavicle 5.1684e-015 1.23246e-014
rhumerus 55.4676 -8.56235 -49.4781
rradius 129.204
rwrist -18.7862
rhand -39.1557 -283.586
rfingers 7.12502
rthumb -12.1538 46.787
lclavicle 5.1684e-015 1.23246e-014
lhumerus 72.9593 -30.7252 -7.58728
lradius 47.984
lwrist 30.8767
lhand 6.76652 46.4195
lfingers 7.12502
lthumb 32.0534 73.6147
rfemur -103.487 -14.4821 41.3847
rtibia 94.2239
rfoot 3.67673 17.1801
rtoes -19.5023
lfemur -98.5703 17.6687 -35.966
ltibia 77.805
lfoot 30.3094 7.13915
ltoes 40.474
